<?xml version="1.0" standalone="no"?>
<svg
  width="600"
  height="600"
  viewBox="0 0 600 600"
  xmlns="http://www.w3.org/2000/svg"
>
  <g transform="translate(300,300)">
    <path d="M108.4,-154.3C128.9,-111.9,126,-66.8,142.1,-18.6C158.3,29.5,193.5,80.8,183.7,113.8C173.9,146.9,119.1,161.8,74,158.9C29,156,-6.4,135.3,-60.3,130.8C-114.1,126.3,-186.5,137.9,-211.6,113.1C-236.6,88.4,-214.3,27.3,-193.3,-24C-172.2,-75.2,-152.3,-116.5,-120.3,-156.8C-88.3,-197.2,-44.1,-236.6,-0.1,-236.5C43.9,-236.3,87.8,-196.7,108.4,-154.3Z" fill="#cfe1ff" />
  </g>
</svg>
  