<?xml version="1.0" standalone="no"?>
<svg
  width="600"
  height="600"
  viewBox="0 0 600 600"
  xmlns="http://www.w3.org/2000/svg"
>
  <g transform="translate(300,300)">
    <path d="M105,-106.7C146.2,-90.6,196.7,-67.1,217.4,-26.9C238.1,13.3,229,70.1,198.2,105.7C167.3,141.4,114.6,155.7,64.5,171.5C14.4,187.3,-33.2,204.5,-70.9,192C-108.7,179.5,-136.6,137.3,-148.3,95.9C-159.9,54.5,-155.3,14,-152.9,-31.8C-150.6,-77.5,-150.5,-128.4,-125.4,-147.3C-100.3,-166.2,-50.1,-153.1,-9.1,-142.2C31.9,-131.4,63.9,-122.8,105,-106.7Z" fill="#cfe1ff" />
  </g>
</svg>
  